<?xml version="1.0" standalone="no"?>
<!DOCTYPE svg PUBLIC "-//W3C//DTD SVG 1.1//EN" "http://www.w3.org/Graphics/SVG/1.1/DTD/svg11.dtd">
<svg viewBox="0 0 966 1074" style="background-color:#ffffff00" version="1.1"
	xmlns="http://www.w3.org/2000/svg" xmlns:xlink="http://www.w3.org/1999/xlink" xml:space="preserve"
	x="0px" y="0px" width="966px" height="1074px"
>
	<defs>
		<radialGradient id="gradient1" cx="76.2032%" cy="10.4034%" r="99.7081%">
			<stop stop-color="#ffffff" stop-opacity="1" offset="0%"/>
			<stop stop-color="#eeeeee" stop-opacity="1" offset="100%"/>
		</radialGradient>
		<radialGradient id="gradient2" cx="76.2032%" cy="10.4034%" r="99.6974%">
			<stop stop-color="#cb0000" stop-opacity="1" offset="0%"/>
			<stop stop-color="#870000" stop-opacity="1" offset="100%"/>
		</radialGradient>
	</defs>
	<g>
		<path d="M 567.1433 27.3949 C 505.385 -9.9962 458.8931 -8.2756 398.7563 27.4529 C 355.7598 52.9979 104.606 194.3963 69.2739 217.834 C 24.9679 247.2247 0 277.3341 0 324.649 L 0 736.2883 C 0 780.8073 16.1431 822.1003 51.1122 843.8669 C 86.0813 865.6335 407.5825 1049.4263 427.8984 1059.7501 C 465.5654 1078.891 501.726 1078.891 540.2539 1058.8898 C 558.8793 1049.2207 873.016 870.0604 901.6469 852.6057 C 930.2777 835.1509 966 802.0991 966 748.7623 L 966 326.5846 C 966 284.0013 942.5913 244.9203 906.5936 223.9974 C 870.5958 203.0745 603.0125 49.1115 567.1433 27.3949 Z" fill="url(#gradient1)"/>
		<path d="M 548.1545 141.6429 C 500.3333 112.6667 464.3334 114 417.7678 141.6878 C 384.4745 161.4839 189.9992 271.0606 162.6406 289.2237 C 128.3333 312 109 335.3333 109 372 L 109 691 C 109 725.5 121.5 757.5 148.5775 774.368 C 175.6551 791.2361 424.6022 933.6663 440.3334 941.6667 C 469.5 956.5 497.5 956.5 527.3333 941 C 541.7554 933.507 785 794.6667 807.1696 781.1401 C 829.3392 767.6136 857 742 857 700.6667 L 857 373.5 C 857 340.5 838.874 310.2142 811 294 C 783.126 277.7858 575.9289 158.4721 548.1545 141.6429 Z" fill="url(#gradient2)"/>
		<path d="M 284.2051 670.4376 C 270.6865 676.6667 269.0198 690.6667 283.9967 698.6505 L 354.5129 739.4602 C 367.6459 747.3215 387.6803 748.2536 399.2674 741.5496 L 481.675 693.87 L 564.0858 741.5496 C 575.6729 748.2536 595.7073 747.3215 608.8403 739.4602 L 679.3564 698.6505 C 694.3333 690.6667 692.6667 676.6667 679.148 670.4376 L 481.675 556.625 L 284.2051 670.4376 ZM 700.8 369.6 L 628.2 329.4 C 614.8345 321.9993 604 330.6345 604 344 L 604 569.8 C 604 583.1655 614.8345 599.9993 628.2 607.4 L 700.8 647.6 C 714.1655 655.0007 725 646.6988 725 633.3333 L 725 407.2 C 725 393.8345 714.1655 377.0007 700.8 369.6 ZM 264.2 369.6 C 250.8345 377.0007 240 393.8345 240 407.2 L 240 633.3333 C 240 646.6988 250.8345 655.0007 264.2 647.6 L 336.8 607.4 C 350.1655 599.9993 361 583.1655 361 569.8 L 361 344 C 361 330.6345 350.1655 321.9993 336.8 329.4 L 264.2 369.6 Z" stroke="#ffffff00" stroke-width="1" fill="#ffffff"/>
	</g>
</svg>